<?xml version="1.0" encoding="UTF-8"?>
<svg version="1.1" xmlns="http://www.w3.org/2000/svg" width="2500" height="2500">
<path d="M0 0 C1.30401881 2.94503125 0.9787988 4.05528941 -0.1953125 7.1171875 C-0.82394408 8.37718087 -1.46853886 9.62927943 -2.125 10.875 C-2.48045898 11.56916016 -2.83591797 12.26332031 -3.20214844 12.97851562 C-6.32210785 18.95691229 -9.77654653 24.7224306 -13.25 30.5 C-29.1256472 57.03712066 -40.78258387 84.63310336 -47 115 C-47.17789062 115.8657666 -47.35578125 116.7315332 -47.5390625 117.62353516 C-58.94374122 176.76267767 -43.21803542 237.68245186 -18 291 C-17.59974609 291.85110352 -17.19949219 292.70220703 -16.78710938 293.57910156 C-11.33551492 305.07896105 -5.29946439 316.18189032 1.1875 327.125 C1.84049072 328.22658447 2.49348145 329.32816895 3.16625977 330.46313477 C15.16279699 350.45837036 28.81731111 369.50372296 43 388 C43.56219238 388.73492676 44.12438477 389.46985352 44.70361328 390.22705078 C51.43655415 399.01165236 58.27880824 407.66341408 65.4921875 416.05859375 C67.85893001 418.8345394 70.15382031 421.65563193 72.4375 424.5 C76.81684878 429.88573414 81.50044838 434.94816799 86.234375 440.01953125 C88.32910924 442.26598689 90.37329669 444.54473428 92.375 446.875 C102.35496928 458.38627884 113.07641345 469.24098061 123.86132812 479.99169922 C125.89832421 482.023262 127.92981951 484.06021836 129.9609375 486.09765625 C131.28353317 487.41959207 132.60643849 488.74121817 133.9296875 490.0625 C134.81900467 490.95485352 134.81900467 490.95485352 135.72628784 491.86523438 C139.42669223 495.54534784 143.25088381 499.03406998 147.20368958 502.44180298 C149.79827086 504.69245452 152.29917382 507.03391575 154.8125 509.375 C159.43433831 513.64519259 164.19423948 517.68225373 169.09765625 521.62890625 C172.38963528 524.31831577 175.59994494 527.09181954 178.8125 529.875 C185.08685003 535.28754508 191.52926336 540.44283904 198.08251953 545.51220703 C200.13289995 547.10311845 202.17436906 548.70500001 204.21484375 550.30859375 C247.91316113 584.58821409 295.0912221 619.73995018 348 638 C346.90081711 641.29754868 346.42847662 641.68224796 343.703125 643.57421875 C342.6510083 644.3165979 342.6510083 644.3165979 341.57763672 645.07397461 C340.8095166 645.60643799 340.04139648 646.13890137 339.25 646.6875 C330.25349223 653.04577592 321.48494962 659.66983613 312.7421875 666.37109375 C311.52619873 667.28483765 311.52619873 667.28483765 310.28564453 668.21704102 C308.01011708 669.93898325 308.01011708 669.93898325 306.08544922 671.78100586 C300.07281686 677.13622959 294.15124336 676.7745475 286.375 676.6875 C283.76290345 676.72100937 281.15090013 676.76274608 278.5390625 676.8125 C277.25547852 676.83570313 275.97189453 676.85890625 274.64941406 676.8828125 C233.77893582 678.19521747 196.2093056 694.61851906 161.75976562 715.34082031 C159.29973209 716.81980013 156.83141154 718.28340478 154.359375 719.7421875 C136.29557168 730.49227408 118.93994785 742.5621995 102 755 C101.36835937 755.46180664 100.73671875 755.92361328 100.0859375 756.39941406 C90.73927794 763.25152597 81.72807544 770.37600867 73 778 C72.18660156 778.70125 71.37320313 779.4025 70.53515625 780.125 C40.47043269 806.53793518 17.00789683 838.99228201 13.82983398 880.20678711 C13.48797669 889.10431604 15.55600214 897.46658914 17.5625 906.0625 C17.93356028 907.68191789 18.30440711 909.3013847 18.67504883 910.92089844 C19.75809736 915.62006358 20.87191264 920.31146251 22 925 C22.28262695 926.1761084 22.56525391 927.3522168 22.85644531 928.56396484 C36.51190655 984.25935236 58.90017754 1038.17602808 89 1087 C89.66153076 1088.07580322 89.66153076 1088.07580322 90.33642578 1089.17333984 C102.51887448 1108.89955213 115.42691226 1128.2041484 129 1147 C129.54333984 1147.75587402 130.08667969 1148.51174805 130.64648438 1149.29052734 C138.54602521 1160.25485583 146.79711453 1170.83100236 155.48242188 1181.18261719 C157.53593896 1183.64181622 159.54858257 1186.13332844 161.5625 1188.625 C164.0759428 1191.71955833 166.6466756 1194.74531817 169.296875 1197.72265625 C169.87751709 1198.37862793 170.45815918 1199.03459961 171.05639648 1199.71044922 C172.19153219 1200.98840403 173.33382564 1202.26005241 174.48461914 1203.52392578 C178.22271009 1207.73677657 180.66410487 1211.87008019 183 1217 C178.40681494 1216.50787303 176.32077624 1214.89287752 173 1211.75 C172.50798096 1211.2861792 172.01596191 1210.8223584 171.5090332 1210.34448242 C165.98677063 1205.08600394 160.59327394 1199.6900993 155.1875 1194.3125 C153.84461914 1192.97687012 153.84461914 1192.97687012 152.47460938 1191.61425781 C147.44303482 1186.56955089 142.61444354 1181.42792755 138 1176 C137.12282303 1174.99051406 136.24524814 1173.98137366 135.3671875 1172.97265625 C128.47998901 1164.93039469 122.02407511 1156.61115431 115.64404297 1148.16308594 C114.05982493 1146.07871234 112.45787371 1144.0096424 110.84765625 1141.9453125 C97.63323751 1124.96236765 85.46670157 1107.20394646 74 1089 C73.49936035 1088.20980469 72.9987207 1087.41960937 72.48291016 1086.60546875 C59.23274463 1065.65285533 47.28721636 1044.06523499 36 1022 C35.63068359 1021.28328125 35.26136719 1020.5665625 34.88085938 1019.828125 C32.52360082 1015.24882348 30.23552569 1010.63992573 28 1006 C27.59990723 1005.17081055 27.19981445 1004.34162109 26.78759766 1003.48730469 C13.61690472 975.97783031 2.15597213 946.89993311 -5.97680664 917.46459961 C-7.83523619 910.82721683 -9.33377722 906.50072296 -14.4375 901.8125 C-14.95973145 901.32676514 -15.48196289 900.84103027 -16.02001953 900.34057617 C-17.64947631 898.85349676 -19.31174864 897.41981198 -21 896 C-21.52835449 895.55527344 -22.05670898 895.11054687 -22.60107422 894.65234375 C-44.14467225 876.83782887 -70.20050195 861.59753927 -99 864 C-116.81027021 866.42375488 -129.32109868 876.92952753 -139.875 890.6875 C-141.95842798 893.42964126 -144.03422007 896.17207826 -146 899 C-146.54567627 899.74354736 -147.09135254 900.48709473 -147.65356445 901.25317383 C-149.40120906 904.81849559 -149.4118611 907.99212988 -149.36328125 911.875 C-149.36538857 913.04522453 -149.36538857 913.04522453 -149.36753845 914.23908997 C-149.3661594 916.82643181 -149.34071552 919.41282002 -149.3125 922 C-149.30107534 923.83162415 -149.28968272 925.66324851 -149.27832031 927.49487305 C-148.80639847 983.34347757 -143.28284597 1037.71358604 -130 1092 C-129.7417041 1093.0631543 -129.4834082 1094.12630859 -129.21728516 1095.22167969 C-115.44901579 1151.05523961 -93.19499619 1205.02164979 -63 1254 C-62.55897949 1254.71720215 -62.11795898 1255.4344043 -61.66357422 1256.17333984 C-49.48112552 1275.89955213 -36.57308774 1295.2041484 -23 1314 C-22.45666016 1314.75587402 -21.91332031 1315.51174805 -21.35351562 1316.29052734 C-13.45397479 1327.25485583 -5.20288547 1337.83100236 3.48242188 1348.18261719 C5.53593896 1350.64181622 7.54858257 1353.13332844 9.5625 1355.625 C12.0759428 1358.71955833 14.6466756 1361.74531817 17.296875 1364.72265625 C17.87751709 1365.37862793 18.45815918 1366.03459961 19.05639648 1366.71044922 C20.19153219 1367.98840403 21.33382564 1369.26005241 22.48461914 1370.52392578 C26.22271009 1374.73677657 28.66410487 1378.87008019 31 1384 C26.40681494 1383.50787303 24.32077624 1381.89287752 21 1378.75 C20.50798096 1378.2861792 20.01596191 1377.8223584 19.5090332 1377.34448242 C13.98677063 1372.08600394 8.59327394 1366.6900993 3.1875 1361.3125 C1.84461914 1359.97687012 1.84461914 1359.97687012 0.47460938 1358.61425781 C-4.55696518 1353.56955089 -9.38555646 1348.42792755 -14 1343 C-14.87717697 1341.99051406 -15.75475186 1340.98137366 -16.6328125 1339.97265625 C-23.52001099 1331.93039469 -29.97592489 1323.61115431 -36.35595703 1315.16308594 C-37.94017507 1313.07871234 -39.54212629 1311.0096424 -41.15234375 1308.9453125 C-54.36676249 1291.96236765 -66.53329843 1274.20394646 -78 1256 C-78.50063965 1255.20980469 -79.0012793 1254.41960937 -79.51708984 1253.60546875 C-91.24258448 1235.06383199 -102.07156109 1216.07778028 -112.04321289 1196.53564453 C-115.98658187 1188.84445691 -119.29669016 1182.87902923 -126.75 1178.125 C-127.72767334 1177.48872681 -127.72767334 1177.48872681 -128.72509766 1176.83959961 C-135.86179874 1172.29473741 -143.31097742 1168.51185369 -151 1165 C-152.19302734 1164.42572266 -152.19302734 1164.42572266 -153.41015625 1163.83984375 C-162.07570877 1160.25006766 -174.05128028 1160.68188706 -182.9375 1163.4375 C-200.58196503 1171.06826257 -209.18346763 1191.26347336 -216 1208 C-245.52979062 1287.31555332 -241.98135995 1382.33747207 -144.79882812 1796.42675781 C-142.36620438 1802.61007903 -139.9418446 1808.79590991 -137.5625 1815 C-137.02363159 1816.36729248 -137.02363159 1816.36729248 -136.47387695 1817.76220703 C-134.39301047 1823.23331987 -133.41834197 1828.15499675 -133 1834 C-137.86219334 1833.54102931 -140.20021349 1832.44808037 -143.71484375 1829.0859375 C-144.57577637 1828.27092773 -145.43670898 1827.45591797 -146.32373047 1826.61621094 C-147.20689941 1825.75286133 -148.09006836 1824.88951172 -149 1824 C-150.2996167 1822.74751465 -150.2996167 1822.74751465 -151.62548828 1821.46972656 C-154.29302562 1818.87602595 -156.93067085 1816.2548954 -159.5625 1813.625 C-160.44357422 1812.75617188 -161.32464844 1811.88734375 -162.23242188 1810.9921875 C-168.26117951 1804.97677767 -173.69254116 1798.65436886 -179 1792 C-180.538381 1790.18471042 -182.07932183 1788.37158025 -183.625 1786.5625 C-194.65478199 1773.3404632 -204.66007801 1759.26940864 -214.49755859 1745.1484375 C-216.01589925 1742.97726464 -217.54732831 1740.81588205 -219.08203125 1738.65625 C-229.09261551 1724.52703398 -238.65784102 1710.10473241 -248.22958374 1695.67674255 C-251.17119239 1691.24354035 -254.12847712 1686.82121446 -257.09594727 1682.40527344 C-280.40548013 1647.66186956 -301.59791867 1611.50928783 -322 1575 C-322.62664551 1573.87964355 -323.25329102 1572.75928711 -323.89892578 1571.60498047 C-333.05764762 1555.21175873 -341.88367457 1538.68192218 -350.46289062 1521.97705078 C-352.257025 1518.50219776 -354.08202539 1515.04464119 -355.91577148 1511.59057617 C-366.00687148 1492.57986467 -375.41450781 1473.26675827 -384.3807373 1453.70175171 C-386.17014275 1449.79842173 -387.97400962 1445.9021572 -389.78796387 1442.01017761 C-400.84323751 1418.27510795 -411.07524614 1394.22778281 -421 1370 C-421.32204407 1369.21433655 -421.64408813 1368.4286731 -421.97589111 1367.61920166 C-426.41255803 1356.78327955 -430.75110409 1345.91089415 -435 1335 C-435.2872998 1334.26313965 -435.57459961 1333.5262793 -435.87060547 1332.76708984 C-452.93537036 1288.92552008 -468.21113966 1244.27879051 -481 1199 C-481.22778137 1198.19632996 -481.45556274 1197.39265991 -481.69024658 1196.56463623 C-510.73021975 1093.91638009 -528.18917104 987.01300042 -538 847 C-538.03760437 846.28269714 -538.07520874 845.56539429 -538.11395264 844.82635498 C-538.60660116 835.22042945 -538.87716999 825.61733361 -539 816 C-539.01095703 815.15149475 -539.02191406 814.3029895 -539.03320312 813.42877197 C-540.18858342 717.85291015 -530.99908958 622.07747186 -445.89263916 361.77423096 C-445.05469212 360.10870737 -444.22127829 358.44090525 -443.38818359 356.77294922 C-426.37281549 322.82521481 -405.91102498 289.56428562 -382 260 C-380.89273158 258.60846871 -379.7859766 257.21652874 -378.6796875 255.82421875 C-373.06421822 248.79777858 -367.30771625 241.97236809 -361.19140625 235.375 C-359.26472151 233.28689961 -357.40577475 231.16138127 -355.5625 229 C-350.98863639 223.7308222 -345.96342699 218.89754079 -341 214 C-338.15994394 211.16927088 -335.3324886 208.32647879 -332.51171875 205.4765625 C-326.18396435 199.09449261 -319.89077285 192.7781343 -313 187 C-311.96617056 186.10433687 -310.93375584 185.20703955 -309.90234375 184.30859375 C-302.9369723 178.2574396 -295.83930785 172.43017427 -288.55078125 166.7734375 C-286.15104151 164.90895815 -283.7760244 163.01848312 -281.41796875 161.1015625 C-271.87657808 153.34822333 -262.03196865 146.10435134 -252 139 C-251.19900879 138.42991211 -250.39801758 137.85982422 -249.57275391 137.27246094 C-218.03092437 114.84188055 -184.97224624 94.53340761 -151 76 C-150.10619629 75.51063965 -149.21239258 75.0212793 -148.29150391 74.51708984 C-136.00440062 67.79466888 -123.64644713 61.22773579 -111.20336914 54.79882812 C-104.54361856 51.34911356 -97.9428135 47.80880489 -91.375 44.1875 C-82.5224997 39.30690913 -73.56058051 34.66625471 -64.5625 30.0625 C-52.34053038 23.80731193 -40.35709591 17.2121173 -28.44189453 10.38818359 C-24.7982966 8.31684808 -21.12802055 6.29884657 -17.4375 4.3125 C-16.32246094 3.71050781 -15.20742188 3.10851562 -14.05859375 2.48828125 C-9.08353113 0.06746534 -5.44828545 -1.6024369 0 0 Z " fill="#052400" transform="translate(844,437)"/>
<path d="M0 0 C5.23613962 0.3922202 9.3491162 1.82717876 13.9375 4.25 C14.61151855 4.59643555 15.28553711 4.94287109 15.97998047 5.29980469 C28.20952068 11.63621312 40.2784772 18.29222024 52.33984375 24.94140625 C63.64177376 31.16074889 75.04483646 37.14961 86.52182007 43.03717041 C95.75409699 47.77522243 104.91186319 52.62119585 113.99829102 57.63500977 C120.75337592 61.35178412 127.58268184 64.90861984 134.4375 68.4375 C146.47268059 74.64944609 158.2707364 81.23061617 170 88 C171.11930908 88.64267822 171.11930908 88.64267822 172.26123047 89.29833984 C207.93286094 109.81303592 242.5121158 132.74398068 275 158 C275.62535645 158.48355957 276.25071289 158.96711914 276.89501953 159.46533203 C283.83705016 164.83460231 290.65465484 170.31971369 297.32397461 176.02490234 C300.60518489 178.83166668 303.93534886 181.55836014 307.3125 184.25 C317.44892996 192.49608252 326.80551102 201.72773542 336 211 C338.90597765 213.91061979 341.81980534 216.81290217 344.7421875 219.70703125 C346.11984395 221.0754682 347.49744694 222.44395897 348.875 223.8125 C349.89787109 224.82280273 349.89787109 224.82280273 350.94140625 225.85351562 C355.50905685 230.3994155 359.81301454 235.1027568 364 240 C364.8774854 241.00921786 365.75507992 242.01834086 366.6328125 243.02734375 C373.5501386 251.10478567 380.07145472 259.44035114 386.45507812 267.94482422 C387.85272265 269.80408016 389.26114562 271.65457792 390.671875 273.50390625 C405.34306934 292.92370775 418.07617676 313.81175378 430 335 C430.50837402 335.90105469 431.01674805 336.80210937 431.54052734 337.73046875 C450.1856349 370.93657515 465.85853277 405.27224079 479 441 C479.4886524 442.31390621 479.97759483 443.62770459 480.46679688 444.94140625 C511.91586765 529.67408278 528.29059001 619.74601954 538 817 C537.9937561 817.74791809 537.98751221 818.49583618 537.9810791 819.26641846 C536.92872815 930.9999481 518.59839878 1044.69902099 342 1538 C341.48115234 1538.97324219 340.96230469 1539.94648437 340.42773438 1540.94921875 C332.72342625 1555.3981288 324.8538502 1569.73937073 316.73339844 1583.95849609 C314.88990557 1587.19317696 313.05779946 1590.43414772 311.2265625 1593.67578125 C302.43852876 1609.19509805 293.3748203 1624.52425624 284.02441406 1639.71142578 C282.72949351 1641.81496894 281.43694401 1643.91997472 280.14746094 1646.02685547 C269.68763834 1663.10511216 258.59980171 1679.74244457 247.4375 1696.36572266 C244.86386606 1700.19993483 242.30667568 1704.04493419 239.75317383 1707.89257812 C233.93110634 1716.66169112 228.00077373 1725.3523474 222 1734 C221.46648926 1734.77069824 220.93297852 1735.54139648 220.38330078 1736.33544922 C199.15221713 1766.97806087 176.90069036 1796.05538898 150.625 1822.5625 C149.75625244 1823.44429932 148.88750488 1824.32609863 147.99243164 1825.23461914 C147.16219482 1826.06598389 146.33195801 1826.89734863 145.4765625 1827.75390625 C144.73486816 1828.49970947 143.99317383 1829.2455127 143.22900391 1830.01391602 C139.43412224 1833.39522624 137.16573053 1835 132 1835 C132.3108779 1825.81873932 135.82661531 1817.81508675 139.125 1809.375 C139.75692469 1807.73250582 140.38776176 1806.08959284 141.01757812 1804.44628906 C143.93061099 1796.8604375 146.88554209 1789.2909637 149.84199524 1781.72195435 C184.42792579 1693.12535914 210.55118081 1600.13220488 212.0625 1201.57421875 C205.50341871 1186.68120898 196.89010181 1170.77139309 181.125 1164.1875 C168.56253285 1160.51900365 156.45697009 1162.71729339 144.88916016 1168.15087891 C143.11850006 1168.94673776 141.2835 1169.59482673 139.44921875 1170.23046875 C126.54428785 1175.68181555 121.25940915 1188.93998878 114.87695312 1200.60742188 C112.27958279 1205.30214849 109.51956943 1209.88146413 106.6875 1214.4375 C106.18114014 1215.25492676 105.67478027 1216.07235352 105.15307617 1216.91455078 C100.35501932 1224.57704244 95.31821843 1232.0772552 90.25 1239.5625 C89.65836563 1240.43804031 89.65836563 1240.43804031 89.05477905 1241.33126831 C83.59399376 1249.39709689 77.91435196 1257.25896759 72 1265 C71.47970215 1265.68408936 70.9594043 1266.36817871 70.42333984 1267.07299805 C64.98608404 1274.1840834 59.35018473 1280.9922262 53.26171875 1287.55859375 C51.32063341 1289.65389313 49.43015898 1291.77704888 47.5625 1293.9375 C43.74554431 1298.33196199 39.79332829 1302.60016232 35.84375 1306.875 C33.78342852 1309.11573999 31.79074348 1311.40481963 29.80859375 1313.71484375 C25.29233704 1318.89333706 20.42956535 1323.71618973 15.5625 1328.5625 C14.65951172 1329.46935547 13.75652344 1330.37621094 12.82617188 1331.31054688 C8.27740765 1335.85272346 3.67762248 1340.26183425 -1.2019043 1344.44702148 C-2.91359602 1345.92537465 -4.57816549 1347.44018319 -6.23046875 1348.984375 C-6.72353516 1349.44457031 -7.21660156 1349.90476562 -7.72460938 1350.37890625 C-8.71390757 1351.30612565 -9.70082773 1352.23588778 -10.68554688 1353.16796875 C-18.03046432 1360 -18.03046432 1360 -22 1360 C-20.64923065 1355.95301519 -18.94508187 1353.59638638 -15.89453125 1350.63671875 C-15.07533203 1349.83169922 -14.25613281 1349.02667969 -13.41210938 1348.19726562 C-12.55423828 1347.36904297 -11.69636719 1346.54082031 -10.8125 1345.6875 C-4.9514387 1339.97961017 0.70180288 1334.23546219 6 1328 C6.9489773 1326.91661477 7.89943064 1325.83452015 8.8515625 1324.75390625 C58.80365875 1267.48761863 95.81789978 1197.78024312 125 1128 C125.27612122 1127.34310181 125.55224243 1126.68620361 125.83673096 1126.00939941 C135.99208515 1101.82047401 144.3349475 1077.0802421 152 1052 C152.32045288 1050.95309998 152.64090576 1049.90619995 152.97106934 1048.82757568 C154.98379729 1042.22700103 156.95089671 1035.6146957 158.87088013 1028.98654175 C159.48652365 1026.87044795 160.11012363 1024.75664853 160.74264526 1022.64553833 C166.20315409 1004.33460379 168.35001082 986.33962408 166.3125 967.25 C166.22000977 966.3101123 166.12751953 965.37022461 166.03222656 964.40185547 C162.61620178 932.46687297 150.22683872 898.3320259 125.390625 876.73046875 C111.02481293 866.23061566 95.55207334 863.07577052 78.1484375 865.546875 C54.41012261 870.67164359 33.68906649 884.86852669 16 901 C15.38785645 901.55091309 14.77571289 902.10182617 14.14501953 902.66943359 C12.2181936 904.42202787 10.32457499 906.2047433 8.4375 908 C7.85339355 908.53278564 7.26928711 909.06557129 6.66748047 909.61450195 C1.78410813 914.39301661 -0.06691798 919.53276966 -2 926 C-2.300271 926.99290039 -2.60054199 927.98580078 -2.90991211 929.00878906 C-3.855886 932.20868151 -4.77205851 935.41625057 -5.6875 938.625 C-17.61643618 979.46900542 -34.66350157 1019.30610789 -55.54541016 1056.38769531 C-57.02356324 1059.04231734 -58.46042297 1061.71563158 -59.88671875 1064.3984375 C-77.74582349 1097.92021681 -99.26691805 1130.50720365 -122.73925781 1160.39208984 C-124.05917901 1162.07547502 -125.36987117 1163.76577453 -126.6796875 1165.45703125 C-135.08996268 1176.28262626 -143.90813412 1186.74014922 -153 1197 C-153.94190186 1198.06915649 -153.94190186 1198.06915649 -154.90283203 1199.15991211 C-160.34481364 1205.28040569 -166.00101694 1211.15702876 -171.80371094 1216.93408203 C-173.26616891 1218.39110886 -174.72310944 1219.8535037 -176.1796875 1221.31640625 C-177.12467904 1222.26073796 -178.06998021 1223.20475995 -179.015625 1224.1484375 C-179.85383789 1224.98552246 -180.69205078 1225.82260742 -181.55566406 1226.68505859 C-183.95109354 1228.95368248 -186.32247396 1231.07058976 -189 1233 C-191.3125 1232.75 -191.3125 1232.75 -193 1232 C-189.09759742 1225.42471893 -184.32889906 1219.78891678 -179.30395508 1214.06958008 C-163.06860577 1195.57634958 -148.26668068 1176.03549153 -134 1156 C-133.17097168 1154.84274414 -133.17097168 1154.84274414 -132.32519531 1153.66210938 C-119.00608617 1135.04763602 -106.43156524 1115.83632228 -95 1096 C-94.50886719 1095.15163574 -94.01773437 1094.30327148 -93.51171875 1093.42919922 C-74.75939765 1060.89795005 -59.21942716 1027.54101474 -47 992 C-46.64083496 990.97116699 -46.28166992 989.94233398 -45.91162109 988.88232422 C-34.11252977 954.85198584 -26.09508306 919.48865104 -20.32196045 883.96789551 C-20.00407385 882.0249003 -19.67229018 880.08419532 -19.34033203 878.14355469 C-17.70705116 867.97396736 -18.24040179 860.13074546 -21.5625 850.4375 C-21.82498535 849.66519043 -22.0874707 848.89288086 -22.35791016 848.09716797 C-33.20031309 817.29417181 -56.32776191 791.59596872 -82 772 C-83.04882666 771.1639007 -84.09558248 770.32519932 -85.140625 769.484375 C-100.23070323 757.38290903 -116.11590716 746.49367289 -132.1875 735.75 C-132.9538678 735.23643951 -133.7202356 734.72287903 -134.50982666 734.1937561 C-148.99280868 724.50004831 -163.79219437 715.50666998 -179.04882812 707.08203125 C-180.91917324 706.04482285 -182.78001818 704.99204589 -184.640625 703.9375 C-212.08196814 688.59551451 -247.03971299 677.1039904 -278.6875 678.17578125 C-293.94833772 678.57967742 -303.51890713 677.56908017 -314.79296875 666.98046875 C-315.81076416 665.99312744 -315.81076416 665.99312744 -316.84912109 664.98583984 C-320.61107634 661.51254314 -324.78244035 658.605335 -328.9375 655.625 C-330.51635011 654.46713393 -332.09450171 653.30831465 -333.671875 652.1484375 C-336.31538013 650.21842435 -338.96883493 648.30470632 -341.640625 646.4140625 C-343.14882812 645.34285156 -343.14882812 645.34285156 -344.6875 644.25 C-345.53699219 643.65703125 -346.38648438 643.0640625 -347.26171875 642.453125 C-347.83535156 641.97359375 -348.40898438 641.4940625 -349 641 C-349 640.34 -349 639.68 -349 639 C-348.13503906 638.70609375 -347.27007813 638.4121875 -346.37890625 638.109375 C-287.17453946 617.29326453 -234.59169041 575.67925294 -186.62890625 536.1640625 C-184.89271842 534.73486776 -183.1506136 533.31282724 -181.40234375 531.8984375 C-170.30096674 522.90615863 -159.5312628 513.52885866 -149.05371094 503.81811523 C-147.17375299 502.07815098 -145.28328366 500.3536325 -143.38085938 498.63793945 C-135.27679375 491.31450739 -127.51846294 483.67208985 -119.80737305 475.93774414 C-117.67675366 473.80172643 -115.54078777 471.67115882 -113.40429688 469.54101562 C-112.0231165 468.15917493 -110.64224611 466.77702433 -109.26171875 465.39453125 C-108.63553146 464.77036819 -108.00934418 464.14620514 -107.36418152 463.50312805 C-103.61702095 459.73632733 -100.05492974 455.85545021 -96.58952332 451.82763672 C-94.01740014 448.87020494 -91.3140137 446.03820012 -88.625 443.1875 C-83.99853326 438.24385388 -79.60355546 433.1909794 -75.37109375 427.90234375 C-72.51373569 424.40478685 -69.54059847 421.01963678 -66.5625 417.625 C-61.22857919 411.51603223 -56.2022445 405.24378647 -51.33056641 398.76025391 C-49.88258204 396.84466357 -48.41756467 394.94299282 -46.94921875 393.04296875 C-14.08629638 350.47178933 14.56156037 304.76369149 33 254 C33.28423828 253.22962402 33.56847656 252.45924805 33.86132812 251.66552734 C41.00352354 232.13635567 45.61422105 211.64464866 48 191 C48.0942627 190.23494141 48.18852539 189.46988281 48.28564453 188.68164062 C55.0823235 125.99170007 36.84122834 69.74974149 3.90356445 16.92919922 C-2.21207319 7.01469528 -2.21207319 7.01469528 -1.75 2.625 C-1 1 -1 1 0 0 Z " fill="#072800" transform="translate(1591,443)"/>
<path d="M0 0 C1.04849583 3.20280949 0.9355051 5.08560952 -0.07421875 8.28125 C-0.45453247 9.52793457 -0.45453247 9.52793457 -0.8425293 10.79980469 C-1.26078979 12.13640137 -1.26078979 12.13640137 -1.6875 13.5 C-9.09174651 38.38238531 -12.36284693 64.07317948 -13 90 C-13.03287109 91.16281494 -13.03287109 91.16281494 -13.06640625 92.34912109 C-15.00768014 170.2103815 10.58314299 243.0802833 57.34472656 304.80664062 C58.92994175 306.90716765 60.49563282 309.02063523 62.0546875 311.140625 C71.6724241 324.18261841 81.84094973 336.7693087 92.84765625 348.66796875 C94.72961376 350.70704068 96.56189084 352.77492392 98.375 354.875 C100.95758517 357.85350035 103.61717561 360.74852507 106.30615234 363.63037109 C111.39921524 369.09118705 116.26566666 374.64901964 120.9375 380.48046875 C122.80300699 382.75935513 124.74291455 384.90906456 126.75 387.0625 C149.17317757 412.08676617 162.70475653 440.17302539 161.20703125 474.05371094 C157.72651034 523.58546369 119.99947013 568.54687236 90.62988281 605.92480469 C89.08040732 607.897624 87.53555489 609.87396301 85.9921875 611.8515625 C78.22427534 621.79299751 70.26016089 631.55584954 62.08374023 641.16430664 C59.19106549 644.56944129 56.36185533 648.01725775 53.5625 651.5 C49.18665755 656.88142204 44.50691185 661.93998569 39.77734375 667.0078125 C37.61922281 669.32240262 35.5082619 671.66895746 33.4375 674.0625 C29.20813718 678.94726045 24.81543282 683.68263219 20.43945312 688.43554688 C18.57942588 690.45709617 16.72319482 692.4821051 14.86743164 694.50756836 C13.95021793 695.50862664 13.03273416 696.50943755 12.11499023 697.51000977 C9.88172351 699.94490452 7.65146692 702.38238152 5.42578125 704.82421875 C3.13025609 707.33934572 0.82830534 709.84812553 -1.48046875 712.35107422 C-2.49793127 713.45517799 -3.51354306 714.56098998 -4.52734375 715.66845703 C-13.75955137 725.73303056 -23.30074436 735.51202772 -32.89224243 745.23327637 C-34.2757805 746.63910986 -35.65498644 748.04922265 -37.02938843 749.46398926 C-55.43572888 768.38542255 -76.84675082 784.19201474 -104.19140625 785.05859375 C-114.33522267 784.90253504 -121.06637781 780.87940656 -128.1328125 773.890625 C-134.7314243 766.8293799 -139.50007981 759.39756431 -139.26171875 749.44140625 C-137.38090954 731.89654419 -125.37325883 717.63880447 -114 705 C-113.19175781 704.09378906 -112.38351562 703.18757812 -111.55078125 702.25390625 C-110.04858489 700.57828144 -108.54099602 698.90747102 -107.02734375 697.2421875 C-105.26032801 695.28791576 -103.53086471 693.30940263 -101.8125 691.3125 C-97.7884288 686.69088691 -93.58274714 682.23981797 -89.39355469 677.76855469 C-85.75868823 673.88816691 -82.14677801 669.98966858 -78.5625 666.0625 C-74.24592556 661.3390614 -69.88161968 656.66311885 -65.5 652 C-56.02596883 641.90470134 -46.60361044 631.86375329 -38 621 C-37.23300781 620.03964844 -36.46601562 619.07929687 -35.67578125 618.08984375 C-7.32045654 581.97219182 12.405526 542.54680579 20 497 C20.21398438 495.71867187 20.42796875 494.43734375 20.6484375 493.1171875 C29.78232226 429.70949473 11.35491562 372.87156476 -24 321 C-34.05164275 306.25256167 -43.42963074 291.47566551 -50.5625 275.0625 C-51.02084229 274.0103833 -51.47918457 272.9582666 -51.95141602 271.87426758 C-59.45824321 254.2440225 -65.11761529 235.9653182 -68 217 C-68.1016748 216.3311377 -68.20334961 215.66227539 -68.30810547 214.97314453 C-75.06239852 163.43102592 -57.22633046 114.01267563 -36 68 C-35.57530426 67.07936768 -35.57530426 67.07936768 -35.14202881 66.14013672 C-28.12671006 50.97572059 -20.59731227 36.15127804 -12.4375 21.57226562 C-10.96890414 18.94435699 -9.51409922 16.30920567 -8.0625 13.671875 C-7.14613211 12.01025186 -6.22947918 10.34878587 -5.3125 8.6875 C-4.89009033 7.92171631 -4.46768066 7.15593262 -4.0324707 6.36694336 C-1.11651099 1.11651099 -1.11651099 1.11651099 0 0 Z " fill="#072800" transform="translate(1365,125)"/>
<path d="M0 0 C3.46121361 3.10735609 5.57708827 6.4956795 7.6875 10.58203125 C8.02654358 11.22389374 8.36558716 11.86575623 8.71490479 12.52706909 C9.817293 14.61844105 10.90894989 16.71519379 12 18.8125 C12.76607497 20.27412052 13.53268137 21.73546263 14.29980469 23.1965332 C15.83172496 26.11646056 17.35947328 29.03851977 18.88476562 31.96191406 C20.67647963 35.39064874 22.49540827 38.80390571 24.328125 42.2109375 C43.78332888 78.53411539 61.07150309 118.20304681 68 159 C68.33644531 160.89105469 68.33644531 160.89105469 68.6796875 162.8203125 C71.78563953 183.88122007 71.60757044 207.20075274 67 228 C66.74259033 229.16281494 66.74259033 229.16281494 66.47998047 230.34912109 C58.11730347 266.79664184 40.94201533 298.20145857 20.05566406 328.82543945 C-0.86898107 359.63598177 -15.68401642 392.72495101 -20 430 C-20.16242188 431.40258057 -20.16242188 431.40258057 -20.328125 432.83349609 C-27.90525814 501.89590753 -5.48041232 564.50218445 37 618.125 C48.78668017 632.624297 61.37380789 646.29632258 74.16015625 659.91015625 C82.96240725 669.28244931 91.74474226 678.67239365 100.4140625 688.16796875 C102.13284047 690.05031623 103.85678073 691.92796342 105.5859375 693.80078125 C140.96822309 732.28582111 140.96822309 732.28582111 140.2421875 752.9375 C138.91020395 764.28084377 131.61067637 772.20047102 123.1796875 779.33984375 C114.96140866 785.59928552 105.48527859 785.44234974 95.625 784.375 C85.22399897 782.76757257 76.39031203 779.03535304 67.375 773.75 C66.80201172 773.41605225 66.22902344 773.08210449 65.63867188 772.73803711 C52.93734032 764.95651145 42.73564439 754.01830965 32.31933594 743.52514648 C29.74729903 740.93477979 27.1672764 738.35257836 24.5859375 735.77148438 C22.92661002 734.10724261 21.26773997 732.44254463 19.609375 730.77734375 C18.84880798 730.01566391 18.08824097 729.25398407 17.30462646 728.46922302 C13.19466662 724.32308415 9.24371134 720.09254465 5.44219971 715.66114807 C3.71801962 713.67521061 1.89157005 711.82634349 0 710 C-2.47963329 707.55336563 -4.85440376 705.07892226 -7.125 702.4375 C-10.6001411 698.3964529 -14.2300253 694.51207456 -17.875 690.625 C-22.61215056 685.56988229 -27.31178896 680.48866616 -31.92578125 675.3203125 C-33.35244999 673.72437798 -34.78787168 672.13623875 -36.23046875 670.5546875 C-40.91668485 665.40872215 -45.37292849 660.12929672 -49.75 654.71875 C-51.93501569 652.07852271 -54.19171391 649.5327028 -56.5 647 C-61.20468015 641.82485184 -65.60436343 636.4379716 -70 631 C-71.01082767 629.76879913 -72.02260049 628.53837382 -73.03515625 627.30859375 C-79.0045461 620.04119714 -84.81374553 612.68903386 -90.41381836 605.13305664 C-93.58210129 600.86474009 -96.8201422 596.66167808 -100.11206055 592.48803711 C-108.15854059 582.273097 -115.72888844 571.78011997 -123 561 C-123.51272461 560.24170898 -124.02544922 559.48341797 -124.55371094 558.70214844 C-137.46654289 539.42111439 -149.45380538 518.36902964 -156 496 C-156.21865723 495.25443848 -156.43731445 494.50887695 -156.66259766 493.74072266 C-164.16529022 466.89290848 -160.41331709 440.68372567 -147.0859375 416.53125 C-138.39349327 401.9861242 -127.49981764 388.8371699 -116.1171875 376.33203125 C-114.21948831 374.24176111 -112.35266585 372.13013885 -110.5 370 C-105.0677722 363.77038097 -99.52589829 357.64201513 -93.90551758 351.58178711 C-88.35178296 345.5785058 -83.11052792 339.3881599 -78 333 C-77.08923981 331.88094186 -76.17774524 330.76248112 -75.265625 329.64453125 C-67.77671064 320.42692269 -60.66468286 310.95640421 -53.69628906 301.34033203 C-52.60245446 299.83119293 -51.50566603 298.32418824 -50.40527344 296.81982422 C-42.22113544 285.61924678 -34.8979059 274.03360547 -28 262 C-27.48373047 261.10055664 -26.96746094 260.20111328 -26.43554688 259.27441406 C15.5975691 185.49509712 24.6613369 93.89629316 2.66308594 12.31054688 C2.10942876 10.38130845 1.47447868 8.47564016 0.8203125 6.578125 C0 4 0 4 0 0 Z " fill="#042000" transform="translate(1068,118)"/>
<path d="M0 0 C10.91917712 0.52860245 21.56617668 1.78954269 32.35107422 3.56738281 C34.10651146 3.85407726 35.86337447 4.13218361 37.62158203 4.40136719 C70.41329638 9.42565879 102.52506128 20.68453682 129 41 C118.91760317 62.81973253 107.60334778 83.95787515 96 105 C95.41847168 106.05735352 94.83694336 107.11470703 94.23779297 108.20410156 C86.01509365 123.14452091 77.63491423 137.9786925 68.96630859 152.66503906 C67.56748709 155.03751259 66.17174902 157.4115988 64.77978516 159.78808594 C55.7129813 175.26489269 46.53332004 190.5962512 36.58984375 205.53125 C33.73300545 209.83385007 30.99986913 214.20344327 28.28125 218.59375 C22.92937576 227.21453087 17.27214629 235.61350967 11.5625 244 C10.59284403 245.42951462 9.62344267 246.85920196 8.65429688 248.2890625 C-19.2755259 289.46284242 -47.24457415 330.12266625 -82.375 365.5625 C-83.24374756 366.44429932 -84.11249512 367.32609863 -85.00756836 368.23461914 C-85.83780518 369.06598389 -86.66804199 369.89734863 -87.5234375 370.75390625 C-88.635979 371.87261108 -88.635979 371.87261108 -89.77099609 373.01391602 C-93.56587776 376.39522624 -95.83426947 378 -101 378 C-100.6891221 368.81873932 -97.17338469 360.81508675 -93.875 352.375 C-93.24307531 350.73250582 -92.61223824 349.08959284 -91.98242188 347.44628906 C-89.06938901 339.8604375 -86.11445791 332.2909637 -83.15800476 324.72195435 C-48.44084069 235.78918652 -21.87754777 142.23755568 0 0 Z " fill="#178900" transform="translate(1824,1900)"/>
<path d="M0 0 C0.13986328 1.01682861 0.27972656 2.03365723 0.42382812 3.08129883 C13.74706708 99.3432066 37.37278602 195.39558866 83 317 C83.34430054 317.88518311 83.68860107 318.77036621 84.04333496 319.68237305 C85.06739761 322.31450678 86.09214846 324.94637137 87.1171875 327.578125 C87.44325485 328.41556244 87.7693222 329.25299988 88.10527039 330.11581421 C89.63357388 334.03850086 91.16648376 337.95922641 92.71118164 341.87548828 C92.9872525 342.57865173 93.26332336 343.28181519 93.54776001 344.00628662 C94.2821946 345.87662596 95.01974906 347.74573939 95.75756836 349.61474609 C97.6427122 354.75119814 99.33443982 359.48174293 99 365 C94.13780666 364.54102931 91.79978651 363.44808037 88.28515625 360.0859375 C86.99375732 358.86342285 86.99375732 358.86342285 85.67626953 357.61621094 C84.79310059 356.75286133 83.90993164 355.88951172 83 355 C82.13358887 354.16500977 81.26717773 353.33001953 80.37451172 352.46972656 C77.70697438 349.87602595 75.06932915 347.2548954 72.4375 344.625 C71.55642578 343.75617187 70.67535156 342.88734375 69.76757812 341.9921875 C63.73882049 335.97677767 58.30745884 329.65436886 53 323 C51.461619 321.18471042 49.92067817 319.37158025 48.375 317.5625 C37.34521801 304.3404632 27.33992199 290.26940864 17.50244141 276.1484375 C15.98410075 273.97726464 14.45267169 271.81588205 12.91796875 269.65625 C2.90738449 255.52703398 -6.65784102 241.10473241 -16.22958374 226.67674255 C-19.17119239 222.24354035 -22.12847712 217.82121446 -25.09594727 213.40527344 C-48.40548013 178.66186956 -69.59791867 142.50928783 -90 106 C-90.62664551 104.87964355 -91.25329102 103.75928711 -91.89892578 102.60498047 C-103.78476186 81.33045989 -115.14414734 59.8212866 -126 38 C-90.73685703 24.0906242 -54.76231466 11.34035106 -18 2 C-16.82211914 1.69400879 -15.64423828 1.38801758 -14.43066406 1.07275391 C-13.28049805 0.78706543 -12.13033203 0.50137695 -10.9453125 0.20703125 C-9.92195801 -0.04973389 -8.89860352 -0.30649902 -7.84423828 -0.57104492 C-4.8997128 -1.01512486 -2.85529396 -0.77195777 0 0 Z " fill="#178900" transform="translate(612,1906)"/>
<path d="M0 0 C0.33 0 0.66 0 1 0 C1.26545674 16.14181186 0.76106884 31.95419324 -1 48 C-1.14632253 49.35286448 -1.29264409 50.70572907 -1.43896484 52.05859375 C-1.92450818 56.51984198 -2.42888574 60.97883131 -2.9375 65.4375 C-3.05647644 66.49709427 -3.05647644 66.49709427 -3.17785645 67.57809448 C-4.18078507 76.43888891 -5.51195822 85.16452796 -7.21704102 93.91674805 C-8.62159349 101.14790748 -9.79353532 108.4212307 -11 115.6875 C-11.19559509 116.85931824 -11.19559509 116.85931824 -11.3951416 118.05480957 C-13.09309355 128.23680426 -14.73434257 138.42070945 -16.0625 148.65893555 C-16.60267053 152.71954309 -17.38586444 156.57430433 -18.42871094 160.54296875 C-19.6646616 165.85861299 -20.46308529 171.26918366 -21.37213135 176.64892578 C-23.86182983 191.31606893 -26.84963578 205.78576336 -30.34912109 220.24902344 C-31.11331316 223.4789245 -31.80246426 226.720791 -32.48242188 229.96923828 C-34.98755861 241.83638279 -38.47178587 253.40313853 -42 265 C-42.39426697 266.30271584 -42.78847038 267.60545092 -43.18261719 268.90820312 C-47.70935661 283.83966685 -52.30541832 298.66478909 -58.23828125 313.10986328 C-59.48055927 316.19246469 -60.60700238 319.31698662 -61.75 322.4375 C-72.15077749 350.37935601 -84.39970525 377.47913721 -98 404 C-98.35594238 404.70318359 -98.71188477 405.40636719 -99.07861328 406.13085938 C-109.34495717 426.38672337 -121.74933184 445.30579792 -134.3125 464.1875 C-134.87194305 465.02984192 -135.43138611 465.87218384 -136.00778198 466.74005127 C-142.41418357 476.37224654 -148.9190524 485.84697997 -156 495 C-156.5158667 495.67716064 -157.0317334 496.35432129 -157.56323242 497.05200195 C-162.99877804 504.17447444 -168.64458549 510.98658592 -174.73828125 517.55859375 C-176.67936659 519.65389313 -178.56984102 521.77704888 -180.4375 523.9375 C-184.25445569 528.33196199 -188.20667171 532.60016232 -192.15625 536.875 C-194.21657148 539.11573999 -196.20925652 541.40481963 -198.19140625 543.71484375 C-202.70766296 548.89333706 -207.57043465 553.71618973 -212.4375 558.5625 C-213.34048828 559.46935547 -214.24347656 560.37621094 -215.17382812 561.31054688 C-219.72259235 565.85272346 -224.32237752 570.26183425 -229.2019043 574.44702148 C-230.91359602 575.92537465 -232.57816549 577.44018319 -234.23046875 578.984375 C-234.97006836 579.67466797 -234.97006836 579.67466797 -235.72460938 580.37890625 C-236.71390757 581.30612565 -237.70082773 582.23588778 -238.68554688 583.16796875 C-246.03046432 590 -246.03046432 590 -250 590 C-248.64923065 585.95301519 -246.94508187 583.59638638 -243.89453125 580.63671875 C-243.07533203 579.83169922 -242.25613281 579.02667969 -241.41210938 578.19726562 C-240.12530273 576.95493164 -240.12530273 576.95493164 -238.8125 575.6875 C-232.9514387 569.97961017 -227.29819712 564.23546219 -222 558 C-221.0510227 556.91661477 -220.10056936 555.83452015 -219.1484375 554.75390625 C-169.19634125 497.48761863 -132.18210022 427.78024312 -103 358 C-102.72387878 357.34310181 -102.44775757 356.68620361 -102.16326904 356.00939941 C-87.4778149 321.03027923 -76.51701556 284.8605097 -66.52954102 248.29711914 C-66.24794128 247.26907166 -65.96634155 246.24102417 -65.6762085 245.18182373 C-65.15270645 243.2661419 -64.63269429 241.34950123 -64.11700439 239.43170166 C-62.84925964 234.78315961 -61.41300152 230.29577695 -59.67002869 225.80458069 C-58.699873 223.19167135 -58.01782687 220.5366277 -57.3515625 217.83203125 C-57.07135254 216.70369873 -56.79114258 215.57536621 -56.50244141 214.4128418 C-56.06810791 212.63067261 -56.06810791 212.63067261 -55.625 210.8125 C-55.3161084 209.55928955 -55.0072168 208.3060791 -54.68896484 207.01489258 C-53.78671848 203.34467823 -52.89187817 199.67274595 -52 196 C-51.78085938 195.10120117 -51.56171875 194.20240234 -51.3359375 193.27636719 C-49.40000581 185.31646138 -47.52552823 177.34322191 -45.7215271 169.3523407 C-40.87244203 147.87576413 -35.71538926 126.48021102 -30.40027237 105.11481094 C-29.88274387 103.03117777 -29.3674751 100.94699847 -28.85287476 98.86264038 C-23.6951589 77.98974031 -18.02418178 57.37205584 -10.9375 37.0625 C-7.09927999 25.85009159 -4.19623733 14.47883634 -1.53735352 2.93579102 C-1 1 -1 1 0 0 Z " fill="#0B4B00" transform="translate(1819,1213)"/>
<path d="M0 0 C1.22682332 4.19727219 0.77139342 7.96712548 0.25 12.25 C0.17523437 12.97574219 0.10046875 13.70148438 0.0234375 14.44921875 C-0.50366117 18.92955744 -1.54808325 22.7572409 -3.22412109 26.93554688 C-11.77178817 49.67911917 -12.72911252 76.02197885 -14.6875 100.0625 C-14.74834778 100.8066214 -14.80919556 101.5507428 -14.87188721 102.31741333 C-15.29244162 107.54222679 -15.65958099 112.76939704 -16 118 C-16.0494577 118.72548035 -16.09891541 119.45096069 -16.14987183 120.19842529 C-17.41982643 139.43444804 -17.20025815 158.73216431 -17.1875 178 C-17.18723312 178.89965359 -17.18696625 179.79930717 -17.18669128 180.72622299 C-17.16307225 244.09440992 -13.09748673 305.29722815 2 367 C2.2582959 368.0631543 2.5165918 369.12630859 2.78271484 370.22167969 C16.55098421 426.05523961 38.80500381 480.02164979 69 529 C69.44102051 529.71720215 69.88204102 530.4344043 70.33642578 531.17333984 C82.51887448 550.89955213 95.42691226 570.2041484 109 589 C109.81500977 590.13381104 109.81500977 590.13381104 110.64648438 591.29052734 C118.54602521 602.25485583 126.79711453 612.83100236 135.48242188 623.18261719 C137.53593896 625.64181622 139.54858257 628.13332844 141.5625 630.625 C144.0759428 633.71955833 146.6466756 636.74531817 149.296875 639.72265625 C149.87751709 640.37862793 150.45815918 641.03459961 151.05639648 641.71044922 C152.19153219 642.98840403 153.33382564 644.26005241 154.48461914 645.52392578 C158.22271009 649.73677657 160.66410487 653.87008019 163 659 C158.40681494 658.50787303 156.32077624 656.89287752 153 653.75 C152.26197144 653.0542688 152.26197144 653.0542688 151.5090332 652.34448242 C145.98677063 647.08600394 140.59327394 641.6900993 135.1875 636.3125 C134.29224609 635.42208008 133.39699219 634.53166016 132.47460938 633.61425781 C127.44303482 628.56955089 122.61444354 623.42792755 118 618 C117.12282303 616.99051406 116.24524814 615.98137366 115.3671875 614.97265625 C108.47998901 606.93039469 102.02407511 598.61115431 95.64404297 590.16308594 C94.05982493 588.07871234 92.45787371 586.0096424 90.84765625 583.9453125 C77.63323751 566.96236765 65.46670157 549.20394646 54 531 C53.49936035 530.20980469 52.9987207 529.41960938 52.48291016 528.60546875 C41.37007647 511.03263859 31.08453059 493.04273584 21.4375 474.625 C20.94886475 473.69252441 20.46022949 472.76004883 19.95678711 471.79931641 C17.47847827 467.01752617 15.16221809 462.20756978 13.01245117 457.27001953 C11.9246978 454.83116474 10.76745742 452.43577946 9.58984375 450.0390625 C-15.4708048 399.00466267 -34.71293959 342.72153131 -41 286 C-41.13680176 284.79714355 -41.27360352 283.59428711 -41.41455078 282.35498047 C-47.16241305 230.31317452 -44.00899373 177.60949886 -32.76269531 126.47021484 C-32.19987799 123.90943204 -31.64450863 121.34767746 -31.09667969 118.78369141 C-27.48459608 101.88726845 -23.767401 85.10255081 -18.76074219 68.55517578 C-17.29691786 63.63849239 -15.93753965 58.69209448 -14.5625 53.75 C-13.97420419 51.64185846 -13.38566137 49.53378583 -12.796875 47.42578125 C-12.50232422 46.37084473 -12.20777344 45.3159082 -11.90429688 44.22900391 C-10.98802562 40.95724268 -10.06519351 37.6873942 -9.140625 34.41796875 C-5.91257532 22.98557777 -2.77192198 11.55254439 0 0 Z " fill="#0C5300" transform="translate(712,1162)"/>
<path d="M0 0 C2.79620968 2.79620968 2.95435739 5.93385801 3.6875 9.6875 C5.20665779 16.98909109 7.14446057 24.07243058 9.375 31.1875 C12.10542284 39.91741842 14.5500795 48.67879942 16.8046875 57.54296875 C18.15077403 62.81336045 19.58262052 68.03883424 21.14648438 73.24853516 C25.82813081 88.92200965 29.14598042 104.93107758 32.55541992 120.91894531 C32.9657752 122.8397956 33.38016538 124.75978273 33.79492188 126.6796875 C36.83562271 140.82018245 39.09262523 154.91629232 40.69580078 169.29052734 C40.98057616 171.82699377 41.28114115 174.36087941 41.58984375 176.89453125 C42.07890141 180.92785412 42.56052976 184.96086899 43 189 C43.08327042 189.75736954 43.16654083 190.51473907 43.25233459 191.2950592 C44.02235499 198.91276257 44.19235891 206.47986372 44.23828125 214.1328125 C44.24308376 214.79412422 44.24788628 215.45543594 44.25283432 216.13678741 C44.28862747 221.13285101 44.3043347 226.12882224 44.3125 231.125 C44.31409245 231.85628365 44.31568489 232.58756729 44.31732559 233.34101105 C44.35576508 254.09470238 44.03966481 274.48772663 40.51269531 295.00097656 C40.03318779 297.80586723 39.62284138 300.60991258 39.2421875 303.4296875 C37.85040501 313.49952643 35.62162768 323.30603828 33.17578125 333.16796875 C32.23534659 336.9700222 31.42992882 340.77873971 30.6875 344.625 C20.55997573 392.43370393 -0.61363066 439.89022102 -24.54541016 482.38769531 C-26.02356324 485.04231734 -27.46042297 487.71563158 -28.88671875 490.3984375 C-46.74582349 523.92021681 -68.26691805 556.50720365 -91.73925781 586.39208984 C-93.05917901 588.07547502 -94.36987117 589.76577453 -95.6796875 591.45703125 C-104.08996268 602.28262626 -112.90813412 612.74014922 -122 623 C-122.62793457 623.712771 -123.25586914 624.42554199 -123.90283203 625.15991211 C-129.34481364 631.28040569 -135.00101694 637.15702876 -140.80371094 642.93408203 C-142.26616891 644.39110886 -143.72310944 645.8535037 -145.1796875 647.31640625 C-146.12467904 648.26073796 -147.06998021 649.20475995 -148.015625 650.1484375 C-148.85383789 650.98552246 -149.69205078 651.82260742 -150.55566406 652.68505859 C-152.95109354 654.95368248 -155.32247396 657.07058976 -158 659 C-160.3125 658.75 -160.3125 658.75 -162 658 C-158.09759742 651.42471893 -153.32889906 645.78891678 -148.30395508 640.06958008 C-132.06860577 621.57634958 -117.26668068 602.03549153 -103 582 C-102.44731445 581.22849609 -101.89462891 580.45699219 -101.32519531 579.66210938 C-88.00608617 561.04763602 -75.43156524 541.83632228 -64 522 C-63.26330078 520.72745361 -63.26330078 520.72745361 -62.51171875 519.42919922 C-43.75939765 486.89795005 -28.21942716 453.54101474 -16 418 C-15.64083496 416.97116699 -15.28166992 415.94233398 -14.91162109 414.88232422 C-3.09837895 380.81117275 4.72569775 345.50638414 10.66400146 309.98217773 C11.15715955 307.07285855 11.68440758 304.16977473 12.20703125 301.265625 C18.23821963 266.56033143 18.47413187 231.27319582 18.3225708 196.15588379 C18.30915242 191.95096872 18.31441098 187.7461599 18.31944084 183.54123306 C18.35840631 140.18905272 17.05406126 96.92563288 10.125 54.0625 C10.00797729 53.32108765 9.89095459 52.57967529 9.77038574 51.8157959 C8.38662275 43.15313993 6.48075122 34.97149094 3.72093201 26.64320374 C1.87076191 20.93232485 1.05557122 15.46896223 0.6875 9.5 C0.61466797 8.57058594 0.54183594 7.64117188 0.46679688 6.68359375 C0.29458923 4.45637486 0.13885597 2.22950011 0 0 Z " fill="#0F6100" transform="translate(1560,1017)"/>
<path d="M0 0 C0.33 0 0.66 0 1 0 C0.36549332 10.65303329 -1.33546426 20.42362833 -3.9375 30.75 C-4.62823198 33.49920266 -5.31571127 36.24918664 -6 39 C-6.27070312 40.08796875 -6.54140625 41.1759375 -6.8203125 42.296875 C-8.85909954 51.09585065 -9.96095519 59.94779026 -10.99829102 68.9140625 C-11.11487061 69.91566406 -11.2314502 70.91726563 -11.3515625 71.94921875 C-11.45291504 72.84987061 -11.55426758 73.75052246 -11.65869141 74.6784668 C-12 77 -12 77 -13 80 C-13.28084496 82.79374568 -13.51811238 85.57537909 -13.71875 88.375 C-13.78155151 89.21353516 -13.84435303 90.05207031 -13.90905762 90.91601562 C-14.04195096 92.70136208 -14.1729609 94.48684957 -14.30224609 96.27246094 C-14.49525781 98.93459289 -14.69433994 101.59621197 -14.89453125 104.2578125 C-15.02380823 106.00518094 -15.15272416 107.75257615 -15.28125 109.5 C-15.338573 110.26747559 -15.395896 111.03495117 -15.45495605 111.82568359 C-15.65073909 114.54969404 -15.82779395 117.2743898 -16 120 C-16.04140862 120.63665651 -16.08281723 121.27331303 -16.12548065 121.92926216 C-16.99800059 135.62045502 -17.17923143 149.27996183 -17.203125 162.99609375 C-17.20595238 164.11422014 -17.20877975 165.23234653 -17.21169281 166.38435555 C-17.22657331 172.31328683 -17.23587038 178.24219452 -17.24023438 184.17114258 C-17.2445977 188.98502266 -17.25842242 193.79872137 -17.28125 198.61254883 C-17.41121611 226.57673578 -17.04902483 254.18520209 -14 282 C-13.74028581 284.46017616 -13.48083475 286.92038011 -13.22167969 289.38061523 C-4.34809897 372.70028298 25.12059079 457.82459536 69 529 C69.44102051 529.71720215 69.88204102 530.4344043 70.33642578 531.17333984 C82.51887448 550.89955213 95.42691226 570.2041484 109 589 C109.81500977 590.13381104 109.81500977 590.13381104 110.64648438 591.29052734 C118.54602521 602.25485583 126.79711453 612.83100236 135.48242188 623.18261719 C137.53593896 625.64181622 139.54858257 628.13332844 141.5625 630.625 C144.0759428 633.71955833 146.6466756 636.74531817 149.296875 639.72265625 C149.87751709 640.37862793 150.45815918 641.03459961 151.05639648 641.71044922 C152.19153219 642.98840403 153.33382564 644.26005241 154.48461914 645.52392578 C158.22271009 649.73677657 160.66410487 653.87008019 163 659 C158.40681494 658.50787303 156.32077624 656.89287752 153 653.75 C152.26197144 653.0542688 152.26197144 653.0542688 151.5090332 652.34448242 C145.98677063 647.08600394 140.59327394 641.6900993 135.1875 636.3125 C134.29224609 635.42208008 133.39699219 634.53166016 132.47460938 633.61425781 C127.44303482 628.56955089 122.61444354 623.42792755 118 618 C117.12282303 616.99051406 116.24524814 615.98137366 115.3671875 614.97265625 C108.47998901 606.93039469 102.02407511 598.61115431 95.64404297 590.16308594 C94.05982493 588.07871234 92.45787371 586.0096424 90.84765625 583.9453125 C77.63323751 566.96236765 65.46670157 549.20394646 54 531 C53.49936035 530.20980469 52.9987207 529.41960938 52.48291016 528.60546875 C39.23274463 507.65285533 27.28721636 486.06523499 16 464 C15.63068359 463.28328125 15.26136719 462.5665625 14.88085938 461.828125 C12.52360082 457.24882348 10.23552569 452.63992573 8 448 C7.59990723 447.17081055 7.19981445 446.34162109 6.78759766 445.48730469 C-10.37242332 409.64536685 -23.41906256 372.19315597 -32.20849609 333.45849609 C-32.84702276 330.66843786 -33.51190001 327.88956392 -34.20703125 325.11328125 C-36.68049284 315.0409864 -38.1743775 304.81424137 -39.6875 294.5625 C-39.79645599 293.82516632 -39.90541199 293.08783264 -40.01766968 292.32815552 C-40.33274151 290.17903431 -40.64224936 288.0291986 -40.94921875 285.87890625 C-41.12799561 284.6266626 -41.30677246 283.37441895 -41.4909668 282.08422852 C-42.70722526 272.71339355 -43.16694381 263.44290641 -43.203125 253.99609375 C-43.21364647 252.15940628 -43.21364647 252.15940628 -43.22438049 250.28561401 C-43.24184793 246.33622582 -43.24881694 242.3869186 -43.25 238.4375 C-43.25044186 237.76439663 -43.25088371 237.09129326 -43.25133896 236.39779282 C-43.25866836 215.11674788 -42.78608103 194.12595304 -40 173 C-39.83371094 171.69417969 -39.66742187 170.38835937 -39.49609375 169.04296875 C-34.45180761 129.98984859 -26.21011399 90.56083784 -14.50390625 52.95703125 C-10.05236046 38.536405 -6.36337191 23.8409442 -2.82421875 9.171875 C-2.0151925 6.05846594 -1.05417511 3.03823395 0 0 Z " fill="#0C5100" transform="translate(864,995)"/>
<path d="M0 0 C1.30401881 2.94503125 0.9787988 4.05528941 -0.1953125 7.1171875 C-0.82394408 8.37718087 -1.46853886 9.62927943 -2.125 10.875 C-2.48045898 11.56916016 -2.83591797 12.26332031 -3.20214844 12.97851562 C-6.32210785 18.95691229 -9.77654653 24.7224306 -13.25 30.5 C-34.64660604 66.2657429 -46.0887653 102.80558611 -51 144 C-66.95014581 142.35832735 -79.56950317 134.89345739 -89.8984375 122.703125 C-104.03801223 104.5161627 -111.74183168 81.30121651 -120 60 C-116.64540177 57.27914068 -113.00237915 55.34511112 -109.1640625 53.41015625 C-108.49695251 53.0696524 -107.82984253 52.72914856 -107.14251709 52.37832642 C-105.71349596 51.64897457 -104.28370247 50.92113436 -102.85321045 50.19467163 C-91.40214962 44.37629562 -80.02149183 38.45890211 -68.77490234 32.25268555 C-62.3158752 28.69551358 -55.7979905 25.26535477 -49.25 21.875 C-41.45883836 17.8408878 -33.7564932 13.6810338 -26.10620117 9.38647461 C-6.50371645 -1.58198508 -6.50371645 -1.58198508 0 0 Z " fill="#178900" transform="translate(844,437)"/>
<path d="M0 0 C5.23613962 0.3922202 9.3491162 1.82717876 13.9375 4.25 C14.61151855 4.59643555 15.28553711 4.94287109 15.97998047 5.29980469 C28.20952068 11.63621312 40.2784772 18.29222024 52.33984375 24.94140625 C63.67757323 31.18034222 75.11739531 37.18664585 86.63140869 43.09146118 C97.8697484 48.85745634 108.98418089 54.81751888 120 61 C116.98458817 66.67867643 113.76793745 71.94905866 109.875 77.0625 C105.55070541 82.85238419 101.38780399 88.72631623 97.31762695 94.69702148 C94.86996182 98.28400683 92.40523304 101.8563534 89.8984375 105.40234375 C84.47138387 113.08192336 79.11001765 120.79607489 73.90625 128.62890625 C73.24459084 129.62473724 73.24459084 129.62473724 72.56956482 130.64068604 C70.37852541 133.94193883 68.1936758 137.2471329 66.01586914 140.55712891 C53.76920687 159.11539657 53.76920687 159.11539657 50 161 C49.98541748 160.45400146 49.97083496 159.90800293 49.95581055 159.34545898 C48.40789346 106.71080841 31.63487723 61.40056742 3.90356445 16.92919922 C-2.21207319 7.01469528 -2.21207319 7.01469528 -1.75 2.625 C-1 1 -1 1 0 0 Z " fill="#178900" transform="translate(1591,443)"/>
<path d="M0 0 C0.86688859 2.89910284 1.0458562 5.11452831 0.66015625 8.109375 C0.56669922 8.86347656 0.47324219 9.61757812 0.37695312 10.39453125 C0.22129883 11.56048828 0.22129883 11.56048828 0.0625 12.75 C-0.03740234 13.54277344 -0.13730469 14.33554688 -0.24023438 15.15234375 C-0.48692871 17.10240371 -0.7425878 19.05132586 -1 21 C-2.578125 20.00390625 -2.578125 20.00390625 -4 18 C-3.75046612 15.16897868 -3.36742714 12.68675236 -2.75 9.9375 C-2.60175781 9.20466797 -2.45351563 8.47183594 -2.30078125 7.71679688 C-1.19553326 2.39106652 -1.19553326 2.39106652 0 0 Z " fill="#0A4000" transform="translate(712,1162)"/>
</svg>
